<?xml version="1.0" standalone="no"?>
<!DOCTYPE svg PUBLIC "-//W3C//DTD SVG 20010904//EN"
 "http://www.w3.org/TR/2001/REC-SVG-20010904/DTD/svg10.dtd">
<svg version="1.0" xmlns="http://www.w3.org/2000/svg"
 width="600.000000pt" height="600.000000pt" viewBox="0 0 600.000000 600.000000"
 preserveAspectRatio="xMidYMid meet">
<metadata>
Created by potrace 1.14, written by Peter Selinger 2001-2017
</metadata>
<g transform="translate(0.000000,600.000000) scale(0.100000,-0.100000)"
fill="#000000" stroke="none">
<path d="M306 5989 c-64 -15 -155 -70 -198 -118 -22 -25 -55 -75 -72 -111 -28
-59 -31 -74 -31 -160 0 -86 3 -101 31 -161 55 -115 142 -191 255 -223 49 -15
128 -16 650 -14 l594 3 60 24 c44 18 78 42 126 90 89 89 113 149 114 282 0 90
-2 99 -37 171 -45 91 -103 147 -196 191 l-67 32 -595 2 c-339 1 -612 -3 -634
-8z"/>
<path d="M2386 5990 c-163 -41 -289 -190 -303 -358 -25 -296 268 -510 549
-403 66 26 143 91 186 158 162 254 -15 594 -316 609 -42 2 -94 -1 -116 -6z"/>
<path d="M306 4949 c-62 -15 -153 -68 -197 -116 -22 -24 -55 -74 -72 -111 -29
-61 -32 -76 -32 -162 0 -86 3 -101 31 -161 76 -160 221 -248 388 -236 101 7
175 38 246 104 231 213 137 599 -165 678 -65 16 -138 18 -199 4z"/>
<path d="M2386 4950 c-63 -16 -153 -70 -197 -117 -22 -24 -55 -74 -72 -111
-29 -61 -32 -76 -32 -162 0 -86 3 -101 31 -161 18 -37 48 -85 68 -107 150
-166 407 -176 569 -23 254 240 97 670 -251 687 -42 2 -94 -1 -116 -6z"/>
<path d="M285 3902 c-120 -41 -196 -109 -249 -221 -28 -60 -31 -75 -31 -161 0
-86 3 -101 31 -161 127 -267 459 -322 659 -108 141 151 140 390 -4 542 -104
110 -272 155 -406 109z"/>
<path d="M1325 3902 c-120 -41 -196 -109 -249 -221 -28 -60 -31 -75 -31 -161
0 -86 3 -101 31 -161 71 -150 207 -239 364 -239 348 0 530 420 291 673 -104
110 -272 155 -406 109z"/>
<path d="M2375 3906 c-243 -77 -361 -328 -258 -548 160 -342 644 -306 748 56
47 163 -26 351 -173 444 -90 58 -223 78 -317 48z"/>
<path d="M285 2862 c-120 -41 -196 -109 -249 -221 -28 -59 -31 -76 -31 -156 0
-107 19 -168 73 -240 84 -112 212 -172 345 -163 109 8 180 40 253 112 35 35
73 86 90 121 26 54 29 69 29 160 -1 122 -24 189 -91 263 -110 123 -278 173
-419 124z"/>
<path d="M1325 2862 c-119 -41 -196 -109 -248 -220 -120 -258 76 -562 363
-562 347 0 529 421 291 673 -104 110 -272 155 -406 109z"/>
<path d="M2375 2866 c-101 -32 -181 -92 -233 -174 -142 -223 -28 -521 227
-596 49 -14 177 -16 1151 -16 1207 0 1151 -3 1252 62 65 41 115 99 152 177 28
60 31 75 31 161 0 86 -3 101 -31 161 -37 78 -87 136 -152 177 -102 65 -44 62
-1256 61 -860 0 -1110 -3 -1141 -13z"/>
<path d="M5480 2861 c-108 -35 -200 -115 -248 -219 -24 -50 -27 -69 -27 -162
0 -99 2 -110 33 -172 126 -256 468 -306 658 -96 20 22 50 70 68 107 28 60 31
75 31 161 0 86 -3 101 -31 161 -18 37 -48 85 -68 107 -104 115 -271 160 -416
113z"/>
<path d="M285 1823 c-121 -44 -196 -110 -249 -222 -28 -59 -31 -76 -31 -156 0
-107 19 -168 73 -240 200 -264 606 -196 703 118 59 188 -31 394 -209 478 -85
41 -208 50 -287 22z"/>
<path d="M1314 1819 c-118 -40 -218 -141 -254 -258 -97 -309 192 -598 501
-501 203 63 323 287 263 491 -64 218 -295 340 -510 268z"/>
<path d="M2360 1821 c-129 -41 -226 -140 -264 -270 -60 -203 57 -423 261 -490
301 -99 596 186 507 490 -63 215 -293 338 -504 270z"/>
<path d="M3400 1821 c-292 -93 -375 -462 -153 -672 162 -153 419 -143 569 23
20 22 50 70 68 107 28 60 31 75 31 161 0 86 -3 101 -31 161 -18 37 -48 85 -68
107 -104 115 -271 160 -416 113z"/>
<path d="M4440 1821 c-222 -71 -336 -311 -251 -531 25 -66 103 -157 163 -193
97 -57 102 -57 723 -57 628 0 643 1 737 61 65 42 115 100 152 178 28 60 31 75
31 161 0 86 -3 101 -31 161 -37 78 -87 136 -152 177 -97 62 -98 62 -736 61
-527 0 -586 -2 -636 -18z"/>
<path d="M279 782 c-231 -77 -342 -336 -238 -557 36 -76 102 -140 187 -182 71
-36 82 -38 166 -38 108 0 169 18 241 73 202 153 221 440 40 611 -79 74 -149
104 -255 108 -62 2 -100 -2 -141 -15z"/>
<path d="M1320 781 c-294 -95 -376 -470 -148 -677 22 -20 70 -50 107 -68 l66
-31 610 0 c683 0 661 -2 760 73 167 127 213 350 109 528 -35 59 -115 131 -182
162 l-57 27 -605 2 c-557 2 -609 1 -660 -16z"/>
<path d="M3398 781 c-73 -24 -116 -51 -165 -104 -52 -56 -78 -101 -97 -166
-60 -203 57 -423 261 -490 194 -64 396 26 486 216 92 198 4 431 -201 529 -76
37 -199 43 -284 15z"/>
<path d="M4438 781 c-31 -10 -72 -28 -91 -40 -54 -33 -126 -116 -155 -179 -22
-49 -26 -71 -26 -157 -1 -122 21 -184 90 -263 106 -121 254 -167 409 -127 114
30 203 107 259 224 28 60 31 75 31 161 0 86 -3 101 -31 161 -18 37 -48 85 -68
107 -104 115 -270 160 -418 113z"/>
<path d="M5472 780 c-29 -10 -68 -28 -86 -39 -53 -33 -125 -117 -154 -179 -24
-51 -27 -68 -26 -162 0 -92 3 -112 26 -162 96 -209 339 -295 544 -193 86 42
143 101 188 195 28 59 31 74 31 160 0 86 -3 101 -31 161 -73 154 -207 240
-373 239 -39 -1 -88 -9 -119 -20z"/>
</g>
</svg>
